<!DOCTYPE svg PUBLIC "-//W3C//DTD SVG 1.1//EN" "http://www.w3.org/Graphics/SVG/1.1/DTD/svg11.dtd">
<!-- Uploaded to: SVG Repo, www.svgrepo.com, Transformed by: SVG Repo Mixer Tools -->
<svg width="139px" height="139px" viewBox="-2.4 -2.4 28.80 28.80" fill="none" xmlns="http://www.w3.org/2000/svg" stroke="#ffffff">
<g id="SVGRepo_bgCarrier" stroke-width="0"/>
<g id="SVGRepo_tracerCarrier" stroke-linecap="round" stroke-linejoin="round" stroke="#CCCCCC" stroke-width="4.8"> <path d="M13.5 3H12H7C5.89543 3 5 3.89543 5 5V19C5 20.1046 5.89543 21 7 21H7.5M13.5 3L19 8.625M13.5 3V7.625C13.5 8.17728 13.9477 8.625 14.5 8.625H19M19 8.625V9.75V12V19C19 20.1046 18.1046 21 17 21H16.5" stroke="#ffffff" stroke-width="1.488" stroke-linecap="round" stroke-linejoin="round"/> <path d="M12 12V20M12 20L9.5 17.5M12 20L14.5 17.5" stroke="#ffffff" stroke-width="1.488" stroke-linecap="round" stroke-linejoin="round"/> </g>
<g id="SVGRepo_iconCarrier"> <path d="M13.5 3H12H7C5.89543 3 5 3.89543 5 5V19C5 20.1046 5.89543 21 7 21H7.5M13.5 3L19 8.625M13.5 3V7.625C13.5 8.17728 13.9477 8.625 14.5 8.625H19M19 8.625V9.75V12V19C19 20.1046 18.1046 21 17 21H16.5" stroke="#ffffff" stroke-width="1.488" stroke-linecap="round" stroke-linejoin="round"/> <path d="M12 12V20M12 20L9.5 17.5M12 20L14.5 17.5" stroke="#ffffff" stroke-width="1.488" stroke-linecap="round" stroke-linejoin="round"/> </g>
</svg>