<?xml version="1.0" encoding="UTF-8"?>
<svg xmlns="http://www.w3.org/2000/svg" xmlns:xlink="http://www.w3.org/1999/xlink" width="25px" height="25px" viewBox="0 0 25 25" version="1.1">
<g id="surface1">
<path style=" stroke:none;fill-rule:nonzero;fill:rgb(100%,98.039216%,83.529412%);fill-opacity:1;" d="M 15 8.125 C 15 8.46875 14.71875 8.75 14.375 8.75 L 10.625 8.75 C 10.28125 8.75 10 8.46875 10 8.125 L 10 5.625 C 10 5.28125 10.28125 5 10.625 5 L 14.375 5 C 14.71875 5 15 5.28125 15 5.625 Z M 15 8.125 "/>
<path style=" stroke:none;fill-rule:nonzero;fill:rgb(13.72549%,10.980392%,10.980392%);fill-opacity:1;" d="M 14.375 9.0625 L 10.625 9.0625 C 10.09375 9.0625 9.6875 8.65625 9.6875 8.125 L 9.6875 5.625 C 9.6875 5.09375 10.09375 4.6875 10.625 4.6875 L 14.375 4.6875 C 14.90625 4.6875 15.3125 5.09375 15.3125 5.625 L 15.3125 8.125 C 15.3125 8.65625 14.90625 9.0625 14.375 9.0625 Z M 10.625 5.3125 C 10.4375 5.3125 10.3125 5.4375 10.3125 5.625 L 10.3125 8.125 C 10.3125 8.3125 10.4375 8.4375 10.625 8.4375 L 14.375 8.4375 C 14.5625 8.4375 14.6875 8.3125 14.6875 8.125 L 14.6875 5.625 C 14.6875 5.4375 14.5625 5.3125 14.375 5.3125 Z M 10.625 5.3125 "/>
<path style=" stroke:none;fill-rule:nonzero;fill:rgb(78.431373%,56.470588%,1.960784%);fill-opacity:1;" d="M 21.875 18.125 C 21.875 18.46875 21.59375 18.75 21.25 18.75 L 4.0625 18.75 C 3.71875 18.75 3.4375 18.46875 3.4375 18.125 L 3.4375 7.5 C 3.4375 7.15625 3.71875 6.875 4.0625 6.875 L 21.25 6.875 C 21.59375 6.875 21.875 7.15625 21.875 7.5 Z M 21.875 18.125 "/>
<path style=" stroke:none;fill-rule:nonzero;fill:rgb(13.72549%,10.980392%,10.980392%);fill-opacity:1;" d="M 21.25 19.0625 L 4.0625 19.0625 C 3.53125 19.0625 3.125 18.65625 3.125 18.125 L 3.125 7.5 C 3.125 6.96875 3.53125 6.5625 4.0625 6.5625 L 21.25 6.5625 C 21.78125 6.5625 22.1875 6.96875 22.1875 7.5 L 22.1875 18.125 C 22.1875 18.65625 21.78125 19.0625 21.25 19.0625 Z M 4.0625 7.1875 C 3.875 7.1875 3.75 7.3125 3.75 7.5 L 3.75 18.125 C 3.75 18.3125 3.875 18.4375 4.0625 18.4375 L 21.25 18.4375 C 21.4375 18.4375 21.5625 18.3125 21.5625 18.125 L 21.5625 7.5 C 21.5625 7.3125 21.4375 7.1875 21.25 7.1875 Z M 4.0625 7.1875 "/>
<path style=" stroke:none;fill-rule:nonzero;fill:rgb(100%,98.039216%,83.529412%);fill-opacity:1;" d="M 6.875 6.875 L 8.75 6.875 L 8.75 18.75 L 6.875 18.75 Z M 6.875 6.875 "/>
<path style=" stroke:none;fill-rule:nonzero;fill:rgb(13.72549%,10.980392%,10.980392%);fill-opacity:1;" d="M 8.75 19.0625 L 6.875 19.0625 C 6.6875 19.0625 6.5625 18.9375 6.5625 18.75 L 6.5625 6.875 C 6.5625 6.6875 6.6875 6.5625 6.875 6.5625 L 8.75 6.5625 C 8.9375 6.5625 9.0625 6.6875 9.0625 6.875 L 9.0625 18.75 C 9.0625 18.9375 8.9375 19.0625 8.75 19.0625 Z M 7.1875 18.4375 L 8.4375 18.4375 L 8.4375 7.1875 L 7.1875 7.1875 Z M 7.1875 18.4375 "/>
<path style=" stroke:none;fill-rule:nonzero;fill:rgb(100%,98.039216%,83.529412%);fill-opacity:1;" d="M 16.5625 6.875 L 18.4375 6.875 L 18.4375 18.75 L 16.5625 18.75 Z M 16.5625 6.875 "/>
<path style=" stroke:none;fill-rule:nonzero;fill:rgb(13.72549%,10.980392%,10.980392%);fill-opacity:1;" d="M 18.4375 19.0625 L 16.5625 19.0625 C 16.375 19.0625 16.25 18.9375 16.25 18.75 L 16.25 6.875 C 16.25 6.6875 16.375 6.5625 16.5625 6.5625 L 18.4375 6.5625 C 18.625 6.5625 18.75 6.6875 18.75 6.875 L 18.75 18.75 C 18.75 18.9375 18.625 19.0625 18.4375 19.0625 Z M 16.875 18.4375 L 18.125 18.4375 L 18.125 7.1875 L 16.875 7.1875 Z M 16.875 18.4375 "/>
</g>
</svg>
